<svg xmlns="http://www.w3.org/2000/svg" width="26" height="25" fill="none">
  <path fill="#B5B5B5" fill-rule="evenodd" d="M.162415 12.5C.162415 5.597 5.75941 0 12.6624 0c6.903 0 12.5 5.597 12.5 12.5s-5.597 12.5-12.5 12.5C5.75941 25 .162415 19.403.162415 12.5zm20.999985 0c0-4.687-3.813-8.5-8.5-8.5-4.68699 0-8.49999 3.813-8.49999 8.5 0 4.687 3.813 8.5 8.49999 8.5 4.687 0 8.5-3.813 8.5-8.5z" clip-rule="evenodd"/>
  <path fill="#B5B5B5" d="M12.6624 17c2.4853 0 4.5-2.0147 4.5-4.5s-2.0147-4.5-4.5-4.5-4.49999 2.0147-4.49999 4.5S10.1771 17 12.6624 17z"/>
</svg>
