<svg width="21" height="21" viewBox="0 0 21 21" fill="none" xmlns="http://www.w3.org/2000/svg">
<path d="M13.273 10.5001L20.695 3.07806C21.084 2.68906 21.084 2.05306 20.695 1.66406L19.336 0.305056C18.947 -0.0839443 18.311 -0.0839443 17.922 0.305056L10.5 7.72706L3.07799 0.305056C2.68899 -0.0839443 2.05299 -0.0839443 1.66399 0.305056L0.304995 1.66406C-0.0840054 2.05306 -0.0840054 2.68906 0.304995 3.07806L7.72699 10.5001L0.305995 17.9221C-0.0830054 18.3111 -0.0830054 18.9471 0.305995 19.3361L1.66499 20.6951C2.05399 21.0841 2.68999 21.0841 3.07899 20.6951L10.501 13.2731L17.923 20.6951C18.312 21.0841 18.948 21.0841 19.337 20.6951L20.696 19.3361C21.085 18.9471 21.085 18.3111 20.696 17.9221L13.273 10.5001Z" fill="#EE3643"/>
</svg>
